<svg id="Capa_1" enable-background="new 0 0 512.205 512.205" height="512" viewBox="0 0 512.205 512.205" width="512" xmlns="http://www.w3.org/2000/svg"><g><g><g><g><path d="m124.76 136.201h262.74v236.655h-262.74z" fill="#f5d573"/></g><g><path d="m361.13 136.201h26.37v236.655h-26.37z" fill="#f7c22c"/></g><g><path d="m256.13 18.252-131.37 117.949h131.37 131.37z" fill="#ff4343"/></g><g><path d="m387.5 136.202h-26.06l-118.34-106.25 13.03-11.7z" fill="#e32929"/></g></g><g><g><path d="m387.5 206.784c0-32.365 26.237-58.602 58.602-58.602s58.602 26.237 58.602 58.602z" fill="#51be60"/></g><g><path d="m504.7 206.782h-26.01c-.21-28.06-20.14-51.41-46.61-56.9 4.49-1.11 9.19-1.7 14.02-1.7 32.37 0 58.6 26.24 58.6 58.6z" fill="#45ad4f"/></g><g><path d="m387.5 206.784h117.205v220.069h-117.205z" fill="#ff9100"/></g><g><path d="m478.13 206.784h26.575v220.069h-26.575z" fill="#f77e00"/></g><g><g><path d="m497.417 90.265-51.315-24.873v26.673 26.673l51.315-24.873c1.504-.729 1.504-2.871 0-3.6z" fill="#ff4343"/></g><g><path d="m497.416 93.862-51.316 24.88v-12.41l42.23-20.47 9.086 4.401c1.504.728 1.504 2.87 0 3.599z" fill="#e32929"/></g></g></g><g><g><path d="m7.5 206.784c0-32.365 26.237-58.602 58.602-58.602s58.602 26.237 58.602 58.602z" fill="#51be60"/></g><g><path d="m124.7 206.782h-26.01c-.21-28.06-20.14-51.41-46.61-56.9 4.49-1.11 9.19-1.7 14.02-1.7 32.37 0 58.6 26.24 58.6 58.6z" fill="#45ad4f"/></g><g><path d="m7.5 206.784h117.205v220.069h-117.205z" fill="#ff9100"/></g><g><path d="m98.13 206.784h26.575v220.069h-26.575z" fill="#f77e00"/></g><g><g><path d="m117.417 90.265-51.314-24.873v26.673 26.673l51.315-24.873c1.503-.729 1.503-2.871-.001-3.6z" fill="#ff4343"/></g><g><path d="m117.416 93.862-51.316 24.88v-12.41l42.23-20.47 9.086 4.401c1.504.728 1.504 2.87 0 3.599z" fill="#e32929"/></g></g></g><g><path d="m461.016 493.953h-409.772c-24.128 0-43.688-19.56-43.688-43.688v-33.721c0-24.128 19.56-43.688 43.688-43.688h409.773c24.128 0 43.688 19.56 43.688 43.688v33.721c0 24.129-19.56 43.688-43.689 43.688z" fill="#87e0ec"/></g><g><path d="m504.7 416.542v33.72c0 24.13-19.56 43.69-43.68 43.69h-17.39c19.31-4.51 33.7-21.85 33.7-42.54v-33.72c0-24.13-19.56-43.69-43.68-43.69l27.37-1.15c24.12 0 43.68 19.56 43.68 43.69z" fill="#2dd2e3"/></g><g><g><circle cx="256.13" cy="257.749" fill="#efe2dd" r="62.498"/></g><g><path d="m318.621 257.751c0 34.513-27.972 62.501-62.485 62.501-22.666 0-42.496-12.055-53.46-30.104 10.099 6.989 22.346 11.093 35.555 11.093 34.512 0 62.501-27.988 62.501-62.501 0-11.846-3.302-22.939-9.041-32.381 16.27 11.269 26.93 30.088 26.93 51.392z" fill="#e1d3ce"/></g></g></g><g><path d="m453.603 141.119v-17.681l47.088-22.824c3.304-1.603 5.355-4.879 5.354-8.551-.001-3.671-2.054-6.945-5.356-8.546l-51.314-24.873c-2.323-1.125-5.063-.977-7.254.394-2.188 1.371-3.518 3.772-3.518 6.355v75.727c-17.509 1.987-32.965 10.839-43.603 23.79v-28.708c0-.182-.014-.361-.027-.54-.004-.053-.003-.106-.008-.159-.031-.337-.088-.665-.162-.988-.014-.06-.03-.118-.046-.178-.078-.306-.173-.605-.287-.895-.011-.027-.019-.055-.03-.082-.129-.313-.28-.614-.448-.905-.033-.058-.069-.114-.104-.171-.171-.278-.354-.547-.559-.799-.011-.013-.02-.028-.031-.042-.216-.263-.455-.505-.704-.737-.03-.028-.053-.06-.083-.087l-131.37-117.948c-2.852-2.559-7.172-2.559-10.021 0l-21.028 18.879c-3.082 2.768-3.337 7.51-.57 10.592 2.767 3.081 7.509 3.338 10.592.57l16.017-14.381 111.79 100.37h-223.498l62.175-55.504c3.09-2.759 3.358-7.499.6-10.59-2.759-3.09-7.499-3.359-10.59-.6l-76.843 68.599c-.03.027-.054.059-.083.087-.252.232-.494.476-.712.741-.004.005-.008.01-.012.016-.211.258-.4.534-.576.819-.036.059-.072.116-.107.176-.169.291-.321.591-.45.904-.009.023-.016.047-.025.07-.117.292-.212.594-.292.902-.016.061-.033.122-.047.183-.075.323-.133.652-.164.989-.005.048-.004.096-.007.144-.014.187-.028.373-.028.563v28.778c-10.639-12.989-26.118-21.869-43.657-23.86v-17.681l47.088-22.824c3.304-1.603 5.355-4.879 5.354-8.551-.001-3.671-2.054-6.945-5.356-8.546l-51.317-24.872c-2.322-1.125-5.064-.977-7.254.394-2.188 1.371-3.518 3.772-3.518 6.355v75.727c-32.929 3.737-58.602 31.752-58.602 65.664l.056 243.48c0 28.226 22.963 51.188 51.188 51.188h318.359c4.143 0 7.5-3.357 7.5-7.5s-3.357-7.5-7.5-7.5h-318.36c-19.954 0-36.188-16.234-36.188-36.188v-33.721c0-19.954 16.233-36.188 36.188-36.188h73.517 262.74 73.517c19.954 0 36.188 16.234 36.188 36.188v33.721c0 19.954-16.234 36.188-36.188 36.188h-44.914c-4.143 0-7.5 3.357-7.5 7.5s3.357 7.5 7.5 7.5h44.914c28.226 0 51.188-22.963 51.188-51.188v-243.48c0-33.912-25.673-61.927-58.602-65.665zm0-42.867v-20.89l30.333 14.703-30.333 14.703zm-380 0v-20.89l30.333 14.703-30.333 14.703zm-7.5 57.43c25.631 0 46.915 18.967 50.554 43.603h-101.108c3.639-24.637 24.923-43.603 50.554-43.603zm51.102 209.673h-65.962c-14.146 0-26.969 5.77-36.243 15.078v-166.149h102.205zm262.795-158.571v158.571h-247.74v-221.654h247.74zm66.103-51.102c25.631 0 46.915 18.967 50.554 43.603h-101.108c3.639-24.637 24.923-43.603 50.554-43.603zm51.102 224.693c-9.27-9.275-22.071-15.02-36.188-15.02h-66.017v-151.071h102.205z"/><path d="m256.13 327.747c38.597 0 69.998-31.401 69.998-69.998s-31.401-69.997-69.998-69.997-69.998 31.4-69.998 69.997 31.401 69.998 69.998 69.998zm0-124.995c30.326 0 54.998 24.672 54.998 54.997 0 30.326-24.672 54.998-54.998 54.998s-54.998-24.672-54.998-54.998c0-30.325 24.672-54.997 54.998-54.997z"/></g></g></svg>